<svg width="30" height="30" fill="none" xmlns="http://www.w3.org/2000/svg"><path d="M14.657.01C23.21-.182 30.22 6.804 29.993 15.434c-.206 7.868-6.662 14.651-15.172 14.565C6.713 29.918.044 23.348.003 15 .053 6.663 6.683.191 14.657.01Z" fill="#323642"/><path fill-rule="evenodd" clip-rule="evenodd" d="M25.57 16.834c.795-.589 1.277-1.353 1.181-2.382-.095-1.01-.605-1.76-1.529-2.17-1-.441-1.957-.317-2.815.384-.098.08-.158.083-.258.018-1.591-1.05-3.345-1.637-5.235-1.829l-.364-.038-.303-.031.747-2.323.469-1.46.093.013c.057.008.108.016.159.027l.811.175c.694.151 1.389.302 2.085.444.199.04.298.11.354.32a2.016 2.016 0 0 0 2.252 1.465c1.371-.222 2.116-1.7 1.451-2.883-.532-.946-2.184-1.512-3.248-.274-.104.122-.193.15-.348.117-.913-.2-1.828-.395-2.742-.59L17.308 5.6c-.522-.112-.765.03-.926.541-.15.479-.302.957-.453 1.436-.302.958-.605 1.917-.906 2.876-.039.124-.072.215-.239.214-.847-.006-1.681.114-2.509.289-1.484.314-2.865.875-4.12 1.731-.115.078-.185.047-.29-.002a13.822 13.822 0 0 1-.348-.169c-.311-.154-.623-.31-.953-.396-1.565-.415-3.423.857-3.103 2.947.125.822.614 1.417 1.287 1.868.111.074.135.14.115.262-.188 1.13-.07 2.228.386 3.283.649 1.5 1.765 2.585 3.121 3.44 1.548.978 3.265 1.473 5.065 1.7 1.574.196 3.14.121 4.687-.227 2.227-.503 4.209-1.458 5.735-3.209 1.21-1.388 1.746-3.002 1.497-4.844-.034-.245.025-.364.216-.506Zm-5.294.077c.003.831-.743 1.575-1.582 1.576-.873 0-1.587-.734-1.588-1.634 0-.824.735-1.546 1.58-1.549.869-.002 1.586.722 1.59 1.607Zm-1.207 4.59c.182-.21.135-.461-.032-.627-.233-.23-.533-.295-.766-.162-.053.03-.102.065-.152.099-.04.027-.08.054-.12.079-1.607.977-3.287 1.129-5.027.405a5.892 5.892 0 0 1-.769-.414c-.084-.05-.167-.101-.252-.15-.25-.146-.564-.095-.803.147-.158.16-.178.432-.02.656.09.126.21.24.337.328 1.088.764 2.31 1.083 3.726 1.099l.155-.01c.144-.01.323-.022.502-.039.88-.08 1.718-.312 2.477-.768.277-.169.53-.398.744-.643Zm-5.977-4.594c.004.804-.752 1.578-1.54 1.58-.895.001-1.638-.718-1.641-1.588-.002-.86.726-1.594 1.58-1.594.866 0 1.598.73 1.601 1.602Z" fill="#fff"/></svg>