<svg width="55" height="54" fill="none" xmlns="http://www.w3.org/2000/svg"><path d="M.008 0v53.95h53.949V0H.008Z" fill="#889099"/><mask id="mask0_1729_324" style="mask-type:alpha" maskUnits="userSpaceOnUse" x="0" y="16" width="54" height="23"><path fill-rule="evenodd" clip-rule="evenodd" d="M0 16.733V38.83h53.965V16.733H0Z" fill="#fff"/></mask><g mask="url('#mask0_1729_324')"><path fill-rule="evenodd" clip-rule="evenodd" d="M51.404 26.16h-4.05l-.882-1.399v1.399h-5.83l-.518-1.353h-.963l-.508 1.353h-3.478c-.318 0-.652-.026-.987-.087a4.685 4.685 0 0 1-1.1-.343 3.873 3.873 0 0 1-.465-.256V26.16H26.81l-1.053-1.371v1.371H4.723l-.518-1.353h-.963l-.508 1.353H0v-5.395l1.726-4.032h3.86l.854 1.926v-1.926h4.73l.564 1.643.554-1.643h20.335v.737a4.057 4.057 0 0 1 1.075-.509c.226-.07.46-.124.702-.162.283-.044.575-.066.874-.066h6.23l.845 1.906v-1.906h3.77l.962 1.507v-1.507h4.323v9.427Zm2.56 3.244v8.846c-.212.13-.443.242-.69.332-.44.16-.93.248-1.453.248H33.658l-1.054-1.37v1.37h-4.186v-2.392c-.601.223-1.28.358-2.026.358h.063v2.034h-6.003l-.863-1.226-.835 1.226h-9.59v-9.426h9.627l.844 1.208.853-1.208h33.477Z" fill="#323642"/></g><path fill-rule="evenodd" clip-rule="evenodd" d="M15.73 30.938v1.29h-3.56v1.235h3.479v1.272H12.17v1.28h3.56v1.281h-5.086v-6.358h5.086Zm5.295 6.358h1.907L20.38 34.09l2.534-3.152h-1.852l-1.563 2.017-1.553-2.017H16.04l2.543 3.179-2.534 3.18H17.9l1.562-2.045 1.562 2.044Zm2.243 0v-6.358h3.497c1.353 0 2.197.864 2.197 2.125 0 1.227-.862 2.134-2.252 2.134h-1.916v2.1h-1.526Zm8.765-2.289h-.718v2.29h-1.526v-6.359h3.451c1.354 0 2.198.827 2.198 2.017 0 1.017-.644 1.798-1.725 1.998l2.116 2.343H33.93l-1.898-2.289Zm9.59-4.069v1.29h-3.56v1.235h3.478v1.272h-3.478v1.28h3.56v1.281h-5.086v-6.358h5.086Zm4.187 5.086h-3.26v1.272h3.214c1.372 0 2.19-.836 2.19-2.026 0-1.135-.736-1.798-1.972-1.798h-1.47c-.364 0-.618-.236-.618-.608 0-.382.254-.636.617-.636h2.76l.564-1.29h-3.279c-1.371 0-2.189.836-2.189 1.98 0 1.172.773 1.844 1.98 1.844h1.463c.363 0 .626.236.626.618 0 .39-.263.644-.626.644Zm6.048 0h-3.26v1.272h3.214c1.373 0 2.19-.836 2.19-2.026 0-1.135-.736-1.798-1.97-1.798H50.56c-.364 0-.618-.236-.618-.608 0-.382.254-.636.618-.636h2.76l.564-1.29h-3.28c-1.37 0-2.188.836-2.188 1.98 0 1.172.773 1.844 1.98 1.844h1.462c.364 0 .627.236.627.618 0 .39-.264.644-.627.644Zm-18.754-3.787c.545 0 .836.354.836.79 0 .436-.29.781-.836.781h-1.789v-1.57h1.79Zm-5.676.835c0 .428-.273.782-.809.782h-1.825v-1.562h1.825c.537 0 .809.345.809.78ZM7.475 24.625H5.758l-.545-1.362H2.19l-.536 1.362H.027l2.725-6.358H4.76l2.716 6.358Zm1.798-6.058.036 1.717v4.341H7.83v-6.358h2.68l1.216 4.505 1.208-4.505h2.688v6.358h-1.48v-4.35l.036-1.671-1.762 6.021h-1.38l-1.762-6.058Zm12.688.99v-1.29h-5.086v6.358h5.086v-1.299H18.4v-1.262h3.478v-1.271H18.4v-1.236h3.56Zm3.36 2.78h-.718v2.288h-1.526v-6.358h3.452c1.353 0 2.198.827 2.198 2.017 0 1.017-.645 1.798-1.726 1.998l2.116 2.343H27.22l-1.898-2.288Zm5.803 2.288h-1.526V18.267h1.526V24.625Zm3.896 0h.082l.627-1.353h-.463c-1.045 0-1.663-.654-1.663-1.78v-.09c0-1.01.554-1.763 1.644-1.763H36.9v-1.372h-1.78c-1.962 0-3.033 1.318-3.033 3.125v.109c0 1.89 1.099 3.115 2.933 3.124Zm8.373 0h-1.716l-.545-1.362h-3.024l-.536 1.362h-1.625l2.724-6.358h2.008l2.714 6.358Zm1.844-3.805-.018-.527.318.527 2.434 3.805h1.78v-6.358h-1.49v3.679l.02.472-.282-.472-2.38-3.679h-1.87v6.358h1.488V20.82Zm-6.084-.182.463-1.19.462 1.19.564 1.408H38.6l.554-1.408Zm-12.76-1.072c.544 0 .835.355.835.79 0 .437-.29.781-.836.781h-1.789v-1.57h1.79Zm-23.16 1.072.464-1.19.463 1.19.563 1.408H2.679l.554-1.408Z" fill="#889099"/></svg>