<svg width="40" height="40" fill="none" xmlns="http://www.w3.org/2000/svg"><path d="M34.063 23.119v.23l.102.209 3.928 8.042a.864.864 0 0 1-.775 1.245H24.809v1.181a4.973 4.973 0 1 1-9.947 0v-1.181H2.364a.864.864 0 0 1-.775-1.244V31.6l3.929-8.043.101-.207V15.434a13.91 13.91 0 0 1 8.894-13.128l.008-.003.007-.003.004-.002.018-.007.084-.032a18.327 18.327 0 0 1 1.533-.493c1.004-.274 2.298-.536 3.543-.536 1.25 0 2.612.263 3.69.54a22.373 22.373 0 0 1 1.756.53l.017.007a14.143 14.143 0 0 1 8.891 13.128v7.684Z" stroke="#46B843" stroke-width="2"/></svg>