<svg width="79" height="24" fill="none" xmlns="http://www.w3.org/2000/svg"><path fill-rule="evenodd" clip-rule="evenodd" d="M24.067 4.958c.666 0 1.24.118 1.723.351.485.235.886.552 1.207.95.317.401.553.87.706 1.406.15.538.227 1.116.227 1.735 0 .951-.175 1.85-.529 2.697a6.985 6.985 0 0 1-1.444 2.211 6.78 6.78 0 0 1-2.16 1.486c-.829.366-1.73.548-2.698.548-.125 0-.345-.003-.655-.01a9.502 9.502 0 0 1-1.069-.092 12.537 12.537 0 0 1-1.278-.25 6.43 6.43 0 0 1-1.277-.454L20.412.516 23.63.02l-1.286 5.33c.275-.123.553-.22.83-.289.278-.067.575-.103.893-.103Zm-2.699 8.845c.485 0 .941-.119 1.37-.352a3.59 3.59 0 0 0 1.113-.94c.31-.393.557-.837.737-1.333.18-.495.27-1.012.27-1.55 0-.661-.11-1.177-.332-1.55-.222-.37-.631-.557-1.226-.557-.195 0-.446.037-.757.102-.313.071-.592.217-.843.436l-1.37 5.66c.083.014.156.028.218.041a2.205 2.205 0 0 0 .446.043h.374ZM31.268 16.053h-3.074L30.79 5.188h3.095l-2.617 10.866Zm1.496-12.19c-.43 0-.818-.127-1.164-.38-.348-.254-.52-.644-.52-1.169 0-.289.059-.56.176-.815A2.173 2.173 0 0 1 32.398.392c.257-.11.53-.164.822-.164.429 0 .816.127 1.162.382.345.255.519.645.519 1.167 0 .29-.058.562-.177.817a2.161 2.161 0 0 1-1.14 1.105 2.034 2.034 0 0 1-.82.165ZM36.578 2.48l3.22-.496-.791 3.203h3.447l-.622 2.52h-3.427l-.913 3.801a4.277 4.277 0 0 0-.145.887c-.015.277.02.514.103.714.082.2.231.354.446.463.215.111.522.167.924.167.331 0 .654-.031.967-.094.31-.06.625-.147.943-.258l.23 2.356c-.416.152-.866.283-1.35.392-.485.11-1.06.164-1.724.164-.955 0-1.696-.14-2.223-.421-.527-.283-.899-.67-1.122-1.159-.22-.487-.318-1.05-.29-1.682.029-.635.124-1.302.29-2.005l2.037-8.551ZM42.319 11.716c0-.936.152-1.819.457-2.646a6.495 6.495 0 0 1 1.31-2.17 6.124 6.124 0 0 1 2.066-1.466c.808-.358 1.712-.538 2.709-.538.624 0 1.181.058 1.671.176.493.118.938.272 1.34.464l-1.06 2.399c-.276-.112-.564-.21-.86-.3-.298-.091-.661-.135-1.09-.135-1.026 0-1.837.351-2.441 1.053-.601.702-.904 1.646-.904 2.831 0 .703.152 1.27.458 1.705.304.434.865.65 1.681.65a5.723 5.723 0 0 0 2.16-.433l.23 2.458c-.389.15-.817.286-1.288.404-.47.115-1.032.174-1.683.174-.858 0-1.585-.125-2.18-.371-.595-.25-1.086-.582-1.474-1.003a3.774 3.774 0 0 1-.841-1.478 6.002 6.002 0 0 1-.261-1.774ZM55.972 16.343c-.733 0-1.37-.11-1.911-.33a3.535 3.535 0 0 1-1.338-.93 4.013 4.013 0 0 1-.8-1.415c-.181-.543-.268-1.146-.268-1.806 0-.828.134-1.655.404-2.48a7.006 7.006 0 0 1 1.195-2.231 6.37 6.37 0 0 1 1.93-1.624c.76-.419 1.634-.63 2.616-.63.72 0 1.354.112 1.902.332.545.22.994.53 1.35.93.35.4.618.87.797 1.415.181.542.27 1.146.27 1.807a8.2 8.2 0 0 1-.393 2.48 7.15 7.15 0 0 1-1.163 2.23 6.091 6.091 0 0 1-1.92 1.622c-.77.42-1.66.63-2.67.63ZM57.508 7.5c-.456 0-.858.132-1.203.392a3.38 3.38 0 0 0-.872.992c-.237.4-.413.837-.53 1.311a5.641 5.641 0 0 0-.176 1.354c0 .689.112 1.225.331 1.612.223.384.623.578 1.205.578.458 0 .858-.13 1.205-.394.344-.26.635-.59.871-.99.236-.398.413-.837.532-1.312.116-.475.175-.927.175-1.353 0-.688-.111-1.226-.333-1.612-.221-.385-.623-.578-1.205-.578ZM65.468 16.053h-3.076l2.596-10.866h3.096l-2.616 10.866Zm1.493-12.19c-.429 0-.817-.127-1.162-.38-.347-.254-.52-.644-.52-1.169 0-.289.059-.56.176-.815.118-.255.274-.476.468-.662.193-.185.42-.333.675-.445.255-.11.529-.164.82-.164.43 0 .817.127 1.163.382.346.255.52.645.52 1.167 0 .29-.061.562-.178.817a2.15 2.15 0 0 1-1.14 1.105c-.257.112-.53.165-.822.165ZM70.297 5.682c.234-.068.494-.15.778-.238a11.806 11.806 0 0 1 2.14-.433c.436-.05.932-.073 1.484-.073 1.62 0 2.738.47 3.355 1.406.616.937.723 2.218.323 3.842l-1.413 5.868H73.87l1.37-5.744c.083-.359.15-.706.197-1.045a2.46 2.46 0 0 0-.01-.887 1.06 1.06 0 0 0-.383-.62c-.203-.159-.51-.238-.925-.238-.401 0-.809.043-1.225.126l-2.015 8.408h-3.095l2.513-10.372ZM33.16 22.53l-.603 1.09h-.652a49.626 49.626 0 0 1 2.64-4.243h.585c.061.306.118.616.169.928a49.78 49.78 0 0 1 .292 2.073c.045.383.093.797.142 1.242h-.603c-.02-.183-.04-.368-.056-.554a17.742 17.742 0 0 0-.055-.535h-1.858Zm1.804-.478a30.832 30.832 0 0 0-.265-1.996 29.35 29.35 0 0 0-1.262 1.996h1.527ZM37.914 23.711a1.97 1.97 0 0 1-.705-.116 1.352 1.352 0 0 1-.508-.33 1.372 1.372 0 0 1-.304-.518 2.142 2.142 0 0 1-.102-.683c0-.367.059-.718.176-1.053.117-.334.283-.63.498-.887a2.44 2.44 0 0 1 .779-.616c.303-.153.641-.23 1.015-.23.32 0 .576.033.766.099.191.065.327.126.41.183l-.247.49a1.774 1.774 0 0 0-.96-.257c-.283 0-.537.066-.763.2a1.913 1.913 0 0 0-.572.514 2.36 2.36 0 0 0-.357.71 2.612 2.612 0 0 0-.123.78c0 .796.347 1.194 1.04 1.194.148 0 .28-.01.397-.03.117-.02.22-.045.31-.071.09-.027.17-.056.24-.089l.185-.086.074.515c-.05.028-.114.059-.194.091-.08.033-.173.064-.28.093a3 3 0 0 1-.775.097ZM41.371 23.711c-.266 0-.501-.039-.704-.116a1.352 1.352 0 0 1-.508-.33 1.372 1.372 0 0 1-.305-.518 2.142 2.142 0 0 1-.101-.683c0-.367.058-.718.175-1.053.117-.334.283-.63.499-.887a2.44 2.44 0 0 1 .778-.616c.304-.153.642-.23 1.016-.23.32 0 .575.033.766.099.19.065.327.126.409.183l-.246.49a1.77 1.77 0 0 0-.96-.257c-.283 0-.538.066-.763.2a1.912 1.912 0 0 0-.573.514c-.155.21-.274.447-.357.71a2.615 2.615 0 0 0-.123.78c0 .796.347 1.194 1.04 1.194.148 0 .28-.01.397-.03.117-.02.22-.045.311-.071.09-.027.17-.056.24-.089l.185-.086.074.515c-.05.028-.114.059-.194.091-.08.033-.174.064-.28.093a3.005 3.005 0 0 1-.776.097ZM43.024 23.62l1.021-4.244h2.517l-.117.496H44.52l-.308 1.28h1.711l-.117.484H44.1l-.363 1.487h2.068l-.117.496h-2.664ZM48.344 19.334c.496 0 .87.093 1.123.281.252.188.378.462.378.82 0 .278-.052.518-.157.72a1.343 1.343 0 0 1-.446.5c-.193.13-.425.227-.695.29-.271.063-.573.095-.905.095h-.425l-.381 1.58h-.597l1.01-4.188c.171-.04.354-.067.547-.08a8.28 8.28 0 0 1 .548-.018Zm-.074.502c-.292 0-.468.008-.53.024l-.406 1.684h.388c.172 0 .349-.015.53-.046.18-.03.342-.085.485-.162a.985.985 0 0 0 .354-.322.927.927 0 0 0 .139-.529c0-.232-.086-.399-.259-.5-.172-.1-.406-.15-.701-.15ZM53.486 19.377l-.117.495h-1.286l-.905 3.747h-.597l.905-3.747H50.2l.116-.495h3.17ZM52.932 23.62l1.021-4.244h2.517l-.117.496h-1.926l-.307 1.28h1.71l-.117.484H54.01l-.363 1.487h2.067l-.117.496h-2.664ZM58.243 19.334c.631 0 1.103.148 1.415.444.312.295.468.694.468 1.196 0 .352-.056.69-.166 1.013-.111.325-.284.611-.517.86a2.494 2.494 0 0 1-.896.595c-.363.147-.797.22-1.301.22-.173 0-.36-.008-.56-.024a2.983 2.983 0 0 1-.53-.086l.991-4.12a3.27 3.27 0 0 1 .548-.08c.193-.012.375-.018.548-.018Zm-.05.502c-.307 0-.492.008-.553.024l-.788 3.27c.033.008.088.015.166.021.078.006.205.01.382.01.324 0 .616-.054.876-.163.26-.108.481-.259.662-.453.18-.194.32-.424.418-.692.099-.267.148-.56.148-.878 0-.36-.104-.639-.314-.84-.209-.199-.541-.3-.997-.3ZM64.723 23.62h-.597l.474-1.972h-1.976l-.474 1.971h-.597l1.022-4.242h.597l-.431 1.775h1.976l.43-1.776h.598l-1.022 4.243ZM65.664 23.62l1.022-4.244h2.517l-.118.496H67.16l-.308 1.28h1.711l-.117.484H66.74l-.363 1.487h2.068l-.118.496h-2.663ZM70.984 19.334c.456 0 .817.091 1.083.275.267.184.4.453.4.808 0 .359-.105.66-.317.903-.211.243-.507.418-.889.523a9.404 9.404 0 0 1 .375.769c.07.16.138.329.203.502.066.174.123.342.173.505h-.61a30.724 30.724 0 0 0-.178-.472 12.44 12.44 0 0 0-.187-.459 8.989 8.989 0 0 0-.367-.753 4.095 4.095 0 0 1-.32.012h-.474l-.4 1.672h-.597l1.01-4.188c.172-.04.355-.067.548-.08.192-.011.375-.017.547-.017Zm-.074.502c-.291 0-.467.008-.53.024l-.387 1.605h.363c.169 0 .34-.012.517-.037.177-.024.338-.072.483-.144a.943.943 0 0 0 .357-.3c.092-.128.139-.299.139-.511 0-.229-.087-.392-.262-.49-.174-.098-.401-.147-.68-.147ZM72.512 23.62l1.022-4.244h2.517l-.118.496h-1.926l-.308 1.28h1.711l-.117.484h-1.705l-.362 1.487h2.067l-.118.496h-2.663ZM8.228 16.342c4.53 0 8.202-3.654 8.202-8.16 0-4.507-3.672-8.16-8.202-8.16-4.53 0-8.202 3.653-8.202 8.16 0 4.506 3.672 8.16 8.202 8.16ZM10.04 4.959c1.136.39 1.967.973 1.804 2.06-.118.795-.561 1.18-1.15 1.314.807.418 1.219 1.06.827 2.172-.486 1.382-1.64 1.498-3.175 1.21L7.973 13.2l-.9-.223.368-1.466a38.39 38.39 0 0 1-.718-.185l-.37 1.472-.898-.223.372-1.488-.24-.062c-.132-.035-.266-.07-.401-.103l-1.172-.29.448-1.026s.663.175.654.162c.255.063.368-.102.413-.212l.588-2.349.014.003.082.021a.606.606 0 0 0-.094-.03l.42-1.676c.011-.19-.055-.43-.42-.521.014-.01-.653-.162-.653-.162l.24-.956 1.24.308v.004c.186.047.379.09.575.135l.369-1.471.9.223-.362 1.442c.242.055.485.11.721.17l.36-1.434.9.224-.37 1.472Zm-.253 4.93c-.255 1.02-1.861.597-2.596.404-.066-.017-.124-.033-.175-.045l.495-1.972c.061.016.136.032.22.051.76.17 2.318.518 2.056 1.561ZM7.886 7.412c.613.162 1.947.516 2.18-.41.237-.948-1.06-1.234-1.694-1.375-.072-.015-.135-.03-.187-.042l-.448 1.788.149.04Z" fill="#889099"/></svg>