<svg width="34" height="22" fill="none" xmlns="http://www.w3.org/2000/svg"><path fill-rule="evenodd" clip-rule="evenodd" d="M21.048 9.56c.1.618.202 1.234.202 1.851 0 3.187-.91 5.757-2.934 7.608C16.392 20.972 13.963 22 10.826 22c-3.035 0-5.565-1.028-7.69-3.187S0 14.084 0 11c0-3.084 1.012-5.654 3.137-7.813S7.792 0 10.827 0c2.834 0 5.262.925 7.286 2.878L15.18 5.758c-1.114-1.13-2.631-1.645-4.352-1.645-1.821 0-3.44.72-4.756 2.056-1.315 1.44-2.023 3.084-2.023 4.935 0 1.953.708 3.598 2.023 4.934 1.316 1.337 2.935 2.056 4.756 2.056 1.518 0 2.834-.41 4.048-1.233 1.214-.925 1.923-2.056 2.125-3.495h-6.173V9.56h10.22ZM34 12.749h-3.036v3.187h-3.137v-3.187H24.69V9.56h3.137V6.374h3.137V9.56H34v3.187Z" fill="#323642"/></svg>