<svg width="28" height="28" fill="none" xmlns="http://www.w3.org/2000/svg"><path fill-rule="evenodd" clip-rule="evenodd" d="M26.271 0H2.247C1.097 0 0 .781 0 1.897v24.149C0 27.16 1.097 28 2.247 28h24.024c1.15 0 1.729-.839 1.729-1.954V1.896C28 .782 27.422 0 26.271 0Z" fill="#323642"/><path fill-rule="evenodd" clip-rule="evenodd" d="M8.273 23.545H4.455V10.818h3.818v12.727ZM6.58 8.91h-.029c-1.428 0-2.354-.928-2.354-2.15 0-1.248.953-2.174 2.41-2.174 1.457 0 2.353.913 2.38 2.161 0 1.223-.923 2.163-2.407 2.163Zm17.6 14.636h-4.454v-6.88c0-1.712-.578-2.88-2.117-2.88-1.178 0-1.883.788-2.19 1.548-.114.272-.147.652-.147 1.031v7.181h-4.207s.055-11.454 0-12.727h4.207v1.732c.636-.867 1.66-2.104 3.92-2.104 2.803 0 4.989 1.818 4.989 5.73v7.37Zm-8.886-10.954a.703.703 0 0 1 .028-.04v.04h-.028Z" fill="#fff"/></svg>