<svg width="66" height="52" fill="none" xmlns="http://www.w3.org/2000/svg"><path fill-rule="evenodd" clip-rule="evenodd" d="M62.81 48.468v-4.844h-1.124v2.81A2.04 2.04 0 0 0 60 45.647a2.81 2.81 0 0 0 0 5.62 2.04 2.04 0 0 0 1.686-.787v.652h1.124v-2.664Zm-34.843-2.686h1.922l.011 1.068h-1.91v2.45c0 .54.213.9.775.9.365-.013.72-.117 1.034-.304l.337 1a2.742 2.742 0 0 1-1.46.416c-1.383 0-1.867-.742-1.867-1.99V46.85h-1.09v-1.068h1.068v-1.63h1.18v1.63Zm-15.539 2v3.373l-1.18.022v-2.99c0-.91-.382-1.416-1.18-1.416a1.264 1.264 0 0 0-1.315 1.427v2.979h-1.18v-2.99c0-.91-.394-1.416-1.17-1.416a1.259 1.259 0 0 0-1.314 1.427v2.956h-1.18v-5.372h1.168v.663c.346-.526.945-.83 1.574-.798a1.973 1.973 0 0 1 1.776.955 2.08 2.08 0 0 1 1.888-.955 2.001 2.001 0 0 1 2.113 2.136Zm27.43-2.135a1.585 1.585 0 0 0-1.416.787v-.652h-1.157v5.373h1.169v-3.013c0-.888.382-1.382 1.123-1.382.25-.004.499.042.731.135l.36-1.124a2.5 2.5 0 0 0-.832-.146l.023.022Zm-17.264 0c.77-.026 1.53.169 2.192.562l-.517.944a3.462 3.462 0 0 0-1.686-.46c-.64 0-1.023.27-1.023.629 0 .36.405.46.91.528l.563.079c1.169.168 1.877.584 1.877 1.607 0 1.023-.9 1.753-2.45 1.753a3.878 3.878 0 0 1-2.327-.697l.562-.91c.516.383 1.145.58 1.787.562.798 0 1.225-.236 1.225-.652 0-.303-.303-.472-.944-.562l-.562-.078c-1.203-.17-1.855-.709-1.855-1.585 0-1.068.888-1.72 2.248-1.72Zm33.5 0a1.585 1.585 0 0 0-1.416.787v-.652H53.52v5.373h1.17v-3.013c0-.888.381-1.382 1.123-1.382.25-.004.498.042.73.135l.36-1.124a2.5 2.5 0 0 0-.831-.146l.022.022Zm-14.249 4.848a2.714 2.714 0 0 1-.812-2.038v-.023a2.715 2.715 0 0 1 2.866-2.81 2.81 2.81 0 0 1 1.933.641l-.562.944a2.36 2.36 0 0 0-1.405-.483 1.725 1.725 0 0 0 0 3.44 2.36 2.36 0 0 0 1.405-.484l.562.944a2.81 2.81 0 0 1-1.933.64 2.714 2.714 0 0 1-2.054-.77Zm10.136-2.038v-2.675h-1.17v.652a2.04 2.04 0 0 0-1.685-.787 2.81 2.81 0 0 0 0 5.62 2.04 2.04 0 0 0 1.686-.787v.652h1.169v-2.675Zm-2.668-1.528a1.624 1.624 0 0 0-1.682 1.528 1.613 1.613 0 0 0 1.63 1.72 1.624 1.624 0 0 0 .052-3.248Zm-15.788-1.282a2.81 2.81 0 0 0 .079 5.62 3.265 3.265 0 0 0 2.23-.73l-.561-.866a2.557 2.557 0 0 1-1.563.562 1.49 1.49 0 0 1-1.607-1.315h3.99v-.45c0-1.686-1.045-2.81-2.551-2.81l-.017-.011Zm.95 1.416a1.332 1.332 0 0 0-.95-.37h-.023a1.382 1.382 0 0 0-1.427 1.303h2.81a1.332 1.332 0 0 0-.41-.934Zm30.299 3.31a.563.563 0 0 1 .374.152.523.523 0 0 1-.174.865.529.529 0 0 1-.214.045.562.562 0 0 1-.506-.326.529.529 0 0 1 .118-.584.56.56 0 0 1 .405-.152h-.003Zm-.01.95a.4.4 0 0 0 .288-.124.416.416 0 0 0 0-.561.415.415 0 0 0-.292-.124.423.423 0 0 0-.298.123.416.416 0 0 0 0 .562c.039.039.085.07.135.09a.418.418 0 0 0 .18.034h-.012Zm.176-.624a.225.225 0 0 0-.146-.045l-.236.006v.495h.106v-.186h.051l.152.185h.13l-.164-.185a.197.197 0 0 0 .118-.05.134.134 0 0 0 .04-.102.14.14 0 0 0-.051-.118Zm-.27.05v.136h.124a.118.118 0 0 0 .067 0 .056.056 0 0 0 0-.05.056.056 0 0 0 0-.051.118.118 0 0 0-.067 0l-.124-.034Zm-4.5-3.808a1.624 1.624 0 0 0-1.682 1.527 1.613 1.613 0 0 0 1.63 1.72 1.624 1.624 0 0 0 .052-3.247Zm-41.15 1.527v-2.686h-1.169v.652a2.04 2.04 0 0 0-1.686-.787 2.81 2.81 0 0 0 0 5.62 2.04 2.04 0 0 0 1.686-.787v.652h1.17v-2.664Zm-2.667-1.527a1.624 1.624 0 0 0-1.683 1.527h-.01a1.613 1.613 0 0 0 1.64 1.72 1.624 1.624 0 0 0 .053-3.247Z" fill="#889099"/><path opacity=".4" d="M25.522 20.751a20.198 20.198 0 0 1 7.728-15.91C24.955-1.678 13.043-.729 5.885 7.023c-7.157 7.75-7.157 19.7 0 27.45 7.158 7.752 19.07 8.701 27.365 2.182a20.198 20.198 0 0 1-7.728-15.904Z" fill="#889099"/><path d="M65.985 20.751A20.231 20.231 0 0 1 33.25 36.655a20.232 20.232 0 0 0 0-31.814 20.231 20.231 0 0 1 32.735 15.904v.006Z" fill="#889099"/><path opacity=".65" d="M33.43 37.18c-4.866-3.75-8-9.634-8-16.25 0-6.617 3.134-12.501 8-16.25 4.865 3.749 8 9.633 8 16.25 0 6.616-3.135 12.5-8 16.25Z" fill="#889099"/><path fill-rule="evenodd" clip-rule="evenodd" d="M64.052 32.632v.651h-.118v-.651h-.287v-.135h.669v.135h-.264Zm1.298-.135v.786l-.118.006v-.596l-.22.512h-.15l-.22-.512v.59h-.146v-.786h.18l.236.562.236-.562h.202Z" fill="#889099"/></svg>