<svg width="74" height="18" fill="none" xmlns="http://www.w3.org/2000/svg"><path fill-rule="evenodd" clip-rule="evenodd" d="M73.117 1.405h-1.129c-.722 0-1.259.485-1.674 1.077l-1.117 1.592-.002.002-2.42 3.446-2.097-2.986c-.01-.015-.015-.028-.026-.044L63.24 2.486c-.416-.591-.958-1.075-1.68-1.075h-1.047c-.723 0-1.191.483-.773 1.073l1.422 2.01.01.012 4.046 5.713v6.466c0 .725.591 1.316 1.314 1.315l.49-.001c.722 0 1.314-.595 1.314-1.319v-6.468l4.31-6.083c.013-.018.03-.035.043-.053l1.127-1.596c.418-.591.025-1.075-.698-1.075ZM25.954 9.18l4.06-3.907 2.87-2.762c.513-.494-.04-1.106-.743-1.106h-1.543c-.703 0-1.058.406-1.57.903L26.022 5.22l-.007.008-1.934 1.875V4.978h-.008c.002-.028.008-.056.008-.085v-2.17c0-.725-.574-1.318-1.277-1.318h-.574c-.703 0-1.278.593-1.278 1.318v2.17c0 .029.006.057.008.085h-.008v11.705c0 .724.575 1.317 1.278 1.317h.574c.703 0 1.277-.593 1.277-1.317v-5.241l2.756 2.835h.003l2.712 2.793c.497.511.84.93 1.543.93h1.546c.703 0 1.002-.857.505-1.368L25.953 9.18ZM56.519 10.805h-3.025c-.364 0-.548-.274-.412-.61l1.67-4.095c.137-.335.362-.335.5 0l1.678 4.096c.137.335-.048.61-.411.61Zm6.076 5.552h.008L57.329 3.244h-.003l-.247-.616c-.27-.672-1.085-1.223-1.812-1.223h-.524c-.726 0-1.541.551-1.809 1.225l-.244.614h-.01l-5.253 13.044h.002l-.198.49c-.272.672.101 1.222.828 1.222h1.175c.727 0 1.068-.555 1.32-1.235l.178-.477h.007l1.062-2.824h6.422l.087.226.065.135.947 2.532h.003l.152.408c.253.68.697 1.235 1.424 1.235h1.04c.727 0 1.098-.55.825-1.22l-.171-.423ZM46.249 7.63a1.994 1.994 0 0 1-.536.774l.002-.002-.002.002c-.475.42-1.184.649-2.138.649h-1.723a.667.667 0 0 1-.67-.66V4.7c0-.362.301-.658.67-.658h1.723c.954 0 1.663.228 2.138.65.237.21.414.463.536.771.12.307.182.666.182 1.079 0 .417-.062.778-.182 1.088Zm3.11 1.128c.27-.647.402-1.388.402-2.216 0-.822-.133-1.559-.401-2.202a4.158 4.158 0 0 0-1.207-1.633c-1.062-.874-2.61-1.302-4.578-1.302h-4.259c-.737 0-1.34.593-1.34 1.318v13.96c0 .724.603 1.317 1.34 1.317h.524c.738 0 1.341-.593 1.341-1.317v-4.994h2.394c1.968 0 3.516-.424 4.578-1.297.534-.438.94-.988 1.207-1.634ZM15 13.66c-.44.55-.943.953-1.525 1.22-.58.267-1.245.403-2.005.403-.762 0-1.427-.136-2.01-.403-.586-.267-1.091-.673-1.535-1.225-.52-.643-.888-1.448-1.11-2.398l-.206-1.382A9.842 9.842 0 0 1 6.594 8.5l.16-1.383c.206-1.081.598-1.987 1.171-2.7l-.002.005h.002c.444-.556.95-.959 1.535-1.225.583-.267 1.248-.403 2.01-.403.76 0 1.424.136 2.005.403.582.266 1.085.669 1.525 1.22.88 1.103 1.336 2.652 1.336 4.625 0 1.97-.456 3.514-1.336 4.617ZM17.423 2.54C15.938.905 13.917.073 11.47.078 9.01.073 6.986.905 5.499 2.54c-1.095 1.2-1.788 2.717-2.073 4.511v.005L3.293 8.47v.009c-.009.18-.02.363-.02.564 0 .298.014.586.031.866v.01l.18 1.413v.004c.314 1.658.98 3.076 2.015 4.21 1.487 1.627 3.512 2.459 5.97 2.454 2.448.005 4.469-.827 5.954-2.463 1.476-1.624 2.22-3.82 2.22-6.494 0-2.677-.741-4.879-2.22-6.502Z" fill="#889099"/><path fill-rule="evenodd" clip-rule="evenodd" d="M11.427 8.043H.655l1.013-1.991H12.44l-1.013 1.991ZM9.409 12.026H0l1.067-1.992h9.409l-1.068 1.992Z" fill="#889099"/></svg>