<svg width="43" height="41" fill="none" xmlns="http://www.w3.org/2000/svg"><mask id="path-1-inside-1_1647_218" fill="#fff"><path fill-rule="evenodd" clip-rule="evenodd" d="M29.22 13.132C35.666 19.576 39.81 28.32 40.314 38h-3.663C35.655 20.637 21.714 6.678 4.37 5.674v-3.64c9.675.507 18.401 4.643 24.85 11.098ZM3.634 7.64c16.822.652 30.404 14.25 31.05 31.094.027.69.582 1.265 1.274 1.265h5.16c.69 0 1.25-.575 1.228-1.265-.33-10.527-4.745-20.052-11.713-27.017C23.664 4.741 14.157.333 3.634.001A1.23 1.23 0 0 0 2.37 1.23v5.135c0 .69.572 1.247 1.265 1.275Zm-.01 5.97c6.777.317 12.89 3.212 17.387 7.717 4.51 4.512 7.392 10.63 7.717 17.407A1.216 1.216 0 0 1 27.512 40h-5.168c-.69 0-1.247-.575-1.292-1.26-.303-4.547-2.21-8.797-5.448-12.025a18.611 18.611 0 0 0-11.98-5.455c-.687-.047-1.254-.605-1.254-1.295v-5.132c0-.693.567-1.252 1.255-1.223Zm15.972 9.13c3.987 3.99 6.595 9.33 7.08 15.26h-3.679a20.64 20.64 0 0 0-5.98-12.7A20.608 20.608 0 0 0 4.37 19.315v-3.653c5.922.482 11.252 3.098 15.226 7.079h.001Z"/></mask><path d="m29.22 13.133-1.414 1.414 1.414-1.415Zm0-.001-1.416 1.413h.001l1.414-1.413ZM40.313 38v2h2.107l-.11-2.104-1.997.104Zm-3.663 0-1.996.115.108 1.885h1.888v-2ZM4.37 5.674h-2V7.56l1.884.11.116-1.997Zm0-3.64L4.474.035 2.37-.074v2.107h2Zm30.314 36.701-1.998.077v.003l1.998-.08ZM3.634 7.641l-.079 1.998h.002l.078-1.998Zm38.713 31.094-2 .063v.002l2-.065ZM30.634 11.718l-1.415 1.414h.001l1.414-1.414ZM3.634.001 3.57 2h.001l.064-2Zm17.378 21.327-1.416 1.413h.001l1.415-1.413ZM3.625 13.61l.093-1.998h-.006l-.087 1.998Zm25.104 25.124 1.998-.094v-.002l-1.998.096Zm-7.677.005 1.996-.13v-.002l-1.996.132Zm-5.448-12.025-1.416 1.412.004.005 1.412-1.417ZM3.624 21.26l-.137 1.996h.004l.134-1.996ZM26.679 38v2h2.17l-.177-2.163-1.993.163Zm-7.08-15.258 1.414-1.414-1.415 1.414ZM22.997 38l-1.99.19.172 1.81h1.818v-2Zm-5.98-12.699-1.416 1.412.004.004 1.413-1.416ZM4.37 19.315h-2v1.816l1.807.175.193-1.991Zm0-3.653.162-1.993-2.162-.176v2.17h2Zm15.226 7.079-1.415 1.413.001.001 1.415-1.414Zm11.038-11.023-2.829 2.828h.001l2.828-2.828Zm11.678 26.178c-.532-10.194-4.896-19.399-11.678-26.178l-2.828 2.829c6.11 6.107 10.033 14.389 10.511 23.558l3.995-.209ZM36.652 40h3.662v-4h-3.663v4ZM4.253 7.67c16.329.946 29.463 14.094 30.4 30.445l3.994-.23C37.594 19.51 22.845 4.74 4.485 3.678l-.231 3.994ZM2.37 2.034v3.64h4v-3.64h-4Zm28.264 9.685C23.85 4.927 14.663.57 4.474.036l-.21 3.994c9.163.48 17.428 4.396 23.54 10.515l2.83-2.827Zm6.049 26.94C35.998 20.772 21.58 6.336 3.713 5.643L3.556 9.64c15.777.612 28.524 13.37 29.129 29.173l3.997-.153ZM35.959 38a.7.7 0 0 1 .724.656l-3.997.159C32.753 40.493 34.11 42 35.959 42v-4Zm5.16 0h-5.16v4h5.16v-4Zm-.771.8a.77.77 0 0 1 .771-.8v4a3.23 3.23 0 0 0 3.227-3.33l-3.998.13ZM29.22 13.133c6.623 6.62 10.814 15.666 11.128 25.665l3.998-.125c-.347-11.057-4.985-21.06-12.298-28.37l-2.828 2.83ZM3.571 2c9.994.315 19.023 4.5 25.648 11.132l2.83-2.827C24.734 2.982 14.75-1.65 3.698-1.998L3.57 2Zm.799-.77a.77.77 0 0 1-.8.77l.13-3.998A3.23 3.23 0 0 0 .37 1.23h4Zm0 5.136V1.23h-4v5.135h4Zm-.656-.724a.7.7 0 0 1 .656.724h-4c0 1.84 1.5 3.206 3.185 3.273l.159-3.997Zm18.713 14.273c-4.834-4.842-11.412-7.96-18.709-8.302l-.187 3.995c6.258.293 11.905 2.965 16.066 7.133l2.83-2.826Zm8.3 18.724c-.35-7.293-3.453-13.875-8.3-18.725l-2.83 2.828c4.173 4.174 6.834 9.827 7.135 16.089l3.995-.192ZM27.512 42c1.807 0 3.302-1.505 3.215-3.359l-3.995.188a.784.784 0 0 1 .78-.829v4Zm-5.168 0h5.168v-4h-5.168v4Zm-3.288-3.129c.107 1.63 1.441 3.13 3.288 3.13v-4c.228 0 .41.097.52.206a.62.62 0 0 1 .184.402l-3.992.262Zm-4.864-10.74c2.89 2.88 4.594 6.673 4.864 10.742l3.991-.265c-.334-5.026-2.445-9.734-6.03-13.309l-2.825 2.833ZM3.491 23.257c4.034.27 7.81 1.976 10.697 4.871l2.833-2.824a20.611 20.611 0 0 0-13.263-6.038l-.267 3.991ZM.37 19.966c0 1.835 1.478 3.176 3.117 3.29l.275-3.99a.673.673 0 0 1 .608.7h-4Zm0-5.133v5.132h4v-5.132h-4Zm3.342-3.22C1.845 11.53.37 13.042.37 14.832h4c0 .405-.341.797-.833.776l.175-3.997ZM28.67 37.836c-.526-6.42-3.35-12.197-7.66-16.51l-2.828 2.829c3.664 3.666 6.056 8.567 6.501 14.008l3.987-.327ZM22.998 40h3.68v-4h-3.68v4Zm-7.392-13.283a18.64 18.64 0 0 1 5.401 11.473l3.982-.38a22.64 22.64 0 0 0-6.558-13.925l-2.825 2.832ZM4.177 21.306a18.608 18.608 0 0 1 11.425 5.407l2.833-2.824a22.608 22.608 0 0 0-13.873-6.565l-.385 3.982ZM2.37 15.662v3.653h4v-3.653h-4Zm18.642 5.666c-4.296-4.303-10.064-7.137-16.48-7.66l-.325 3.988c5.43.442 10.322 2.84 13.974 6.498l2.83-2.826Zm0 0-.001-.001-2.829 2.828.001.001 2.829-2.828Z" fill="#46B843" mask="url('#path-1-inside-1_1647_218')"/><circle cx="6.717" cy="34.783" stroke="#46B843" stroke-width="2" r="5.217"/></svg>