<svg width="30" height="30" viewBox="0 0 30 30" fill="none" xmlns="http://www.w3.org/2000/svg">
<path d="M14.6573 0.010483C23.2105 -0.18217 30.2195 6.80366 29.9931 15.434C29.7866 23.3015 23.3311 30.0851 14.8213 29.9992C6.71312 29.9176 0.0442388 23.3475 0.00346375 14.9992C0.0529143 6.66307 6.68363 0.190986 14.6573 0.010483Z" fill="#323642"/>
<path fill-rule="evenodd" clip-rule="evenodd" d="M25.5703 16.8343C26.3649 16.2451 26.8473 15.4814 26.751 14.4522C26.6564 13.4429 26.1463 12.6923 25.2224 12.2818C24.2221 11.841 23.2652 11.965 22.4072 12.6662C22.3091 12.7461 22.2493 12.7495 22.1486 12.6836C20.5575 11.6344 18.8042 11.0469 16.9138 10.8551C16.7944 10.8429 16.6749 10.8304 16.5498 10.8173L16.5497 10.8172L16.2475 10.7857C16.4993 10.0027 16.7468 9.23203 16.9936 8.46338L16.9938 8.46286L17.463 7.00207C17.496 7.00738 17.5268 7.01189 17.5561 7.01617C17.613 7.02449 17.6642 7.03197 17.7146 7.04286C17.9851 7.10102 18.2555 7.15972 18.526 7.21844L18.5261 7.21844L18.5261 7.21844L18.5261 7.21845L18.5261 7.21846C19.2202 7.36912 19.9147 7.51986 20.6113 7.6616C20.81 7.70239 20.9089 7.77182 20.9653 7.98182C21.2308 8.97459 22.2189 9.60722 23.2166 9.44668C24.5882 9.22539 25.3326 7.74752 24.668 6.56383C24.1362 5.61792 22.4844 5.05212 21.4199 6.29047C21.3158 6.41197 21.2273 6.4406 21.072 6.40676C20.1586 6.20632 19.2443 6.01187 18.3297 5.81737C17.9891 5.74493 17.6484 5.67247 17.3077 5.5997C16.7863 5.48775 16.5425 5.63094 16.382 6.14121C16.2312 6.61987 16.0801 7.09842 15.9291 7.57698L15.9291 7.5771L15.929 7.57722C15.6266 8.53538 15.3243 9.49354 15.0234 10.4525C14.9844 10.5774 14.9514 10.6677 14.784 10.6668C13.9372 10.6607 13.1027 10.7805 12.275 10.9558C10.7906 11.2699 9.41034 11.8305 8.15499 12.6871C8.04048 12.7652 7.9702 12.7339 7.86523 12.6853C7.7487 12.6314 7.63293 12.5739 7.51705 12.5163L7.51704 12.5163C7.20588 12.3618 6.89387 12.2068 6.5639 12.1195C4.99883 11.7047 3.14053 12.9769 3.46066 15.0674C3.58646 15.8893 4.07489 16.4837 4.74811 16.935C4.85916 17.0087 4.88345 17.0755 4.8635 17.197C4.67524 18.3278 4.79236 19.4247 5.24869 20.4799C5.89762 21.9804 7.01416 23.0651 8.37015 23.9208C9.91786 24.8979 11.6348 25.3926 13.4349 25.6191C15.0095 25.8161 16.5755 25.7414 18.1223 25.3926C20.3485 24.8901 22.3308 23.9347 23.8568 22.1843C25.0671 20.7958 25.6032 19.1817 25.3542 17.3402C25.3204 17.0946 25.3794 16.9757 25.5703 16.8343ZM20.2756 16.9107C20.2791 17.742 19.533 18.4857 18.694 18.4866C17.8213 18.4875 17.1073 17.7533 17.1064 16.8525C17.1055 16.029 17.8412 15.307 18.6854 15.3044C19.5546 15.3018 20.2721 16.0255 20.2756 16.9107ZM19.0688 21.5013C19.251 21.2905 19.2042 21.0397 19.0367 20.8739C18.8042 20.6431 18.504 20.5789 18.2707 20.7125C18.2184 20.7425 18.1686 20.7766 18.1188 20.8106L18.1188 20.8106L18.1188 20.8106C18.0793 20.8376 18.0398 20.8646 17.9991 20.8895C16.3915 21.8667 14.712 22.0186 12.9717 21.2948C12.7045 21.1836 12.4534 21.032 12.203 20.8808L12.203 20.8808C12.1192 20.8302 12.0356 20.7797 11.9514 20.7307C11.7016 20.5849 11.3875 20.6361 11.1481 20.8783C10.9902 21.0371 10.9702 21.3104 11.1281 21.5343C11.2175 21.6602 11.338 21.7738 11.4647 21.8624C12.5526 22.626 13.7759 22.9445 15.1909 22.961C15.2353 22.9577 15.2879 22.9543 15.3463 22.9504C15.4899 22.9409 15.6687 22.9291 15.8476 22.9124C16.7273 22.8317 17.5662 22.6 18.3253 22.1435C18.6021 21.9752 18.8554 21.7461 19.0688 21.5013ZM13.0922 16.9072C13.0957 17.7108 12.3401 18.4849 11.5515 18.4866C10.657 18.4883 9.91353 17.7689 9.91092 16.8994C9.90919 16.0394 10.6371 15.3052 11.4916 15.3052C12.3574 15.3044 13.0888 16.0359 13.0922 16.9072Z" fill="white"/>
</svg>
