<svg width="34" height="22" viewBox="0 0 34 22" fill="none" xmlns="http://www.w3.org/2000/svg">
<path fill-rule="evenodd" clip-rule="evenodd" d="M21.0476 9.56075C21.1488 10.1776 21.25 10.7944 21.25 11.4112C21.25 14.5981 20.3393 17.1682 18.3155 19.0187C16.3929 20.972 13.9643 22 10.8274 22C7.79167 22 5.2619 20.972 3.1369 18.8131C1.0119 16.6542 0 14.0841 0 11C0 7.91589 1.0119 5.34579 3.1369 3.18692C5.2619 1.02804 7.79167 0 10.8274 0C13.6607 0 16.0893 0.925234 18.1131 2.8785L15.1786 5.75701C14.0655 4.62617 12.5476 4.11215 10.8274 4.11215C9.00595 4.11215 7.3869 4.83178 6.07143 6.16822C4.75595 7.60748 4.04762 9.25234 4.04762 11.1028C4.04762 13.0561 4.75595 14.7009 6.07143 16.0374C7.3869 17.3738 9.00595 18.0935 10.8274 18.0935C12.3452 18.0935 13.6607 17.6822 14.875 16.8598C16.0893 15.9346 16.7976 14.8037 17 13.3645H10.8274V9.56075H21.0476ZM34 12.7477H30.9643V15.9346H27.8274V12.7477H24.6905V9.56075H27.8274V6.37383H30.9643V9.56075H34V12.7477Z" fill="#323642"/>
</svg>
