<svg width="28" height="28" viewBox="0 0 28 28" fill="none" xmlns="http://www.w3.org/2000/svg">
<path fill-rule="evenodd" clip-rule="evenodd" d="M26.2713 0H2.24698C1.09656 0 0 0.781151 0 1.89681V26.0458C0 27.1614 1.09687 28 2.24698 28H26.2713C27.4217 28 28 27.1611 28 26.0458V1.89681C28 0.781464 27.4217 0 26.2713 0Z" fill="#323642"/>
<path fill-rule="evenodd" clip-rule="evenodd" d="M8.27273 23.5454H4.45454V10.8181H8.27273V23.5454ZM6.5809 8.90901H6.5524C5.12415 8.90901 4.1983 7.9814 4.1983 6.75861C4.1983 5.51109 5.1514 4.58545 6.60784 4.58545C8.06459 4.58545 8.96069 5.49845 8.98888 6.74629C8.98888 7.96939 8.0649 8.90901 6.5809 8.90901ZM24.1818 23.5454H19.7273V16.6641C19.7273 14.9527 19.1493 13.7853 17.6095 13.7853C16.4315 13.7853 15.727 14.5731 15.4201 15.3332C15.306 15.6051 15.2727 15.9847 15.2727 16.3643V23.5454H11.0655C11.0655 23.5454 11.1212 12.0908 11.0655 10.8181H15.2727V12.5503C15.9091 11.6834 16.9323 10.4465 19.1937 10.4465C21.996 10.4465 24.1818 12.2644 24.1818 16.1755V23.5454ZM15.2954 12.5907C15.3029 12.5788 15.3129 12.5644 15.323 12.5507V12.5907H15.2954Z" fill="white"/>
</svg>
