<svg width="28" height="23" viewBox="0 0 28 23" fill="none" xmlns="http://www.w3.org/2000/svg">
<path d="M28 2.72126C26.9694 3.18305 25.8637 3.49623 24.7019 3.63604C25.8881 2.91766 26.7962 1.77821 27.2266 0.424635C26.1138 1.0899 24.8855 1.57297 23.5768 1.83484C22.5287 0.704224 21.038 0 19.3845 0C16.2124 0 13.6404 2.60097 13.6404 5.80706C13.6404 6.26177 13.6911 6.70588 13.7891 7.13056C9.01601 6.88812 4.78357 4.57558 1.95085 1.06159C1.45568 1.91798 1.17399 2.91586 1.17399 3.98105C1.17399 5.99638 2.18881 7.77459 3.72854 8.81494C2.78719 8.78311 1.90185 8.52124 1.12677 8.08597V8.15851C1.12677 10.9718 3.10741 13.3197 5.73365 13.8541C5.25248 13.985 4.74509 14.0576 4.22018 14.0576C3.84927 14.0576 3.49058 14.0204 3.13889 13.9497C3.87023 16.2587 5.99087 17.9378 8.50341 17.9838C6.53851 19.5409 4.06097 20.4663 1.36999 20.4663C0.906341 20.4663 0.449648 20.4379 0 20.3866C2.54229 22.0375 5.56048 23 8.80437 23C19.3706 23 25.1463 14.1496 25.1463 6.47413L25.1271 5.72216C26.2556 4.90819 27.2319 3.88551 28 2.72126Z" fill="#323642"/>
</svg>
