<svg width="79" height="24" viewBox="0 0 79 24" fill="none" xmlns="http://www.w3.org/2000/svg">
<path fill-rule="evenodd" clip-rule="evenodd" d="M24.0672 4.95763C24.7328 4.95763 25.3072 5.076 25.7903 5.30916C26.2754 5.54436 26.6764 5.8612 26.9974 6.25967C27.3144 6.66018 27.5503 7.12855 27.7026 7.66477C27.8538 8.20304 27.9297 8.7811 27.9297 9.40049C27.9297 10.351 27.7549 11.25 27.401 12.0969C27.0477 12.9449 26.5677 13.6806 25.9574 14.3081C25.3477 14.9352 24.6277 15.4291 23.7974 15.7939C22.9682 16.1597 22.0672 16.3418 21.0995 16.3418C20.9744 16.3418 20.7544 16.3388 20.4436 16.3316C20.1328 16.3255 19.7754 16.2939 19.3754 16.2398C18.9728 16.1842 18.5472 16.1015 18.0974 15.9908C17.6482 15.8821 17.2215 15.7296 16.8195 15.5362L20.4123 0.516814L23.6303 0.0203857L22.3441 5.34998C22.6195 5.22651 22.8969 5.13059 23.1738 5.0612C23.4523 4.99385 23.7492 4.95763 24.0672 4.95763ZM21.3682 13.8025C21.8528 13.8025 22.3092 13.6842 22.7385 13.451C23.1687 13.2183 23.54 12.9035 23.8508 12.5112C24.1615 12.1178 24.4082 11.674 24.5877 11.178C24.7672 10.6826 24.858 10.1658 24.858 9.62753C24.858 8.96681 24.7472 8.451 24.5256 8.07855C24.3041 7.70712 23.8949 7.5209 23.3 7.5209C23.1051 7.5209 22.8538 7.55763 22.5426 7.62345C22.2303 7.69437 21.9508 7.83977 21.7 8.05865L20.3303 13.7194C20.4128 13.7331 20.4862 13.7474 20.5482 13.7602C20.6092 13.774 20.6764 13.7842 20.7436 13.7913C20.8149 13.7995 20.8959 13.803 20.9938 13.803C21.0918 13.803 21.2159 13.8025 21.3682 13.8025Z" fill="#889099"/>
<path fill-rule="evenodd" clip-rule="evenodd" d="M31.2682 16.0535H28.1944L30.7903 5.1867H33.8851L31.2682 16.0535ZM32.7636 3.86374C32.3344 3.86374 31.9456 3.73619 31.6005 3.48211C31.2523 3.22905 31.08 2.83925 31.08 2.31425C31.08 2.02548 31.139 1.75405 31.2559 1.49895C31.3744 1.24384 31.5298 1.02344 31.7241 0.837211C31.9185 0.652007 32.1431 0.504048 32.3985 0.392313C32.6554 0.282619 32.9287 0.228027 33.22 0.228027C33.6487 0.228027 34.0359 0.355068 34.3821 0.60966C34.7272 0.865272 34.901 1.25507 34.901 1.77701C34.901 2.0668 34.8426 2.33925 34.7241 2.59435C34.6067 2.84946 34.4518 3.06884 34.2574 3.25609C34.0651 3.44129 33.838 3.58874 33.5831 3.69946C33.3262 3.81068 33.0544 3.86374 32.7636 3.86374Z" fill="#889099"/>
<path fill-rule="evenodd" clip-rule="evenodd" d="M36.5779 2.48056L39.7974 1.98413L39.0067 5.18668H42.4544L41.8318 7.70658H38.4046L37.4918 11.5081C37.4077 11.8249 37.36 12.1209 37.3467 12.3954C37.3318 12.6719 37.3667 12.9091 37.4497 13.1086C37.5323 13.3086 37.681 13.4627 37.8964 13.5724C38.1108 13.6831 38.4179 13.7387 38.82 13.7387C39.1513 13.7387 39.4744 13.7076 39.7867 13.6448C40.0969 13.5841 40.4118 13.4984 40.7303 13.3867L40.9595 15.7433C40.5441 15.8948 40.0944 16.0255 39.6097 16.1352C39.1246 16.2459 38.5497 16.2994 37.8856 16.2994C36.9308 16.2994 36.1903 16.1591 35.6631 15.878C35.1364 15.5948 34.7641 15.2086 34.541 14.7193C34.321 14.2321 34.2231 13.6698 34.2508 13.0367C34.2795 12.402 34.3754 11.7346 34.541 11.0321L36.5779 2.48056Z" fill="#889099"/>
<path fill-rule="evenodd" clip-rule="evenodd" d="M42.319 11.7158C42.319 10.7795 42.4713 9.8974 42.7759 9.07036C43.0795 8.24332 43.5174 7.52036 44.0856 6.89945C44.6518 6.28159 45.341 5.7923 46.1523 5.43363C46.96 5.07598 47.8641 4.89587 48.861 4.89587C49.4846 4.89587 50.042 4.95404 50.5323 5.07189C51.0246 5.19026 51.4703 5.34383 51.8728 5.53618L50.8128 7.93465C50.5359 7.82291 50.2482 7.72445 49.9513 7.63465C49.6538 7.54383 49.2908 7.49996 48.8615 7.49996C47.8359 7.49996 47.0246 7.85149 46.421 8.55251C45.82 9.25455 45.5169 10.1989 45.5169 11.3841C45.5169 12.0867 45.6692 12.654 45.9749 13.0887C46.279 13.5229 46.8405 13.7387 47.6564 13.7387C48.059 13.7387 48.4472 13.6969 48.8195 13.6153C49.1944 13.5326 49.5251 13.429 49.8169 13.3056L50.0461 15.7637C49.6574 15.9142 49.2287 16.05 48.7585 16.1683C48.2872 16.2831 47.7261 16.3418 47.0754 16.3418C46.2169 16.3418 45.4897 16.2173 44.8954 15.9709C44.3005 15.7209 43.8087 15.3887 43.4215 14.9683C43.0323 14.5469 42.7528 14.0545 42.58 13.4898C42.4067 12.927 42.319 12.3341 42.319 11.7158H42.319Z" fill="#889099"/>
<path fill-rule="evenodd" clip-rule="evenodd" d="M55.9723 16.3429C55.2385 16.3429 54.6015 16.2322 54.061 16.0123C53.5221 15.7918 53.0759 15.4832 52.7226 15.0827C52.3692 14.6842 52.1041 14.2117 51.9231 13.6679C51.7415 13.1245 51.6549 12.522 51.6549 11.8623C51.6549 11.0342 51.7887 10.2066 52.0585 9.38113C52.3272 8.5546 52.7256 7.81175 53.2539 7.15103C53.7774 6.4893 54.4231 5.94848 55.1841 5.52654C55.9436 5.10818 56.818 4.89746 57.7995 4.89746C58.5195 4.89746 59.1539 5.00869 59.7015 5.22858C60.2467 5.44899 60.6959 5.75971 61.0513 6.15818C61.4026 6.55869 61.6697 7.02909 61.8492 7.57399C62.0303 8.11634 62.119 8.72042 62.119 9.38062C62.119 10.2061 61.9872 11.0337 61.7256 11.8617C61.4636 12.6852 61.0754 13.4301 60.5626 14.0918C60.0508 14.7526 59.4108 15.2929 58.6421 15.7133C57.8733 16.1327 56.9826 16.3429 55.9723 16.3429ZM57.5082 7.50103C57.0523 7.50103 56.6497 7.63266 56.3046 7.89287C55.9585 8.15562 55.6677 8.48624 55.4333 8.88471C55.1964 9.28471 55.0205 9.72246 54.9021 10.1964C54.7846 10.6725 54.7267 11.122 54.7267 11.5495C54.7267 12.2388 54.8385 12.7755 55.058 13.1623C55.281 13.5464 55.681 13.7398 56.2631 13.7398C56.7205 13.7398 57.121 13.6092 57.4682 13.3464C57.8123 13.0857 58.1031 12.7551 58.3395 12.3556C58.5749 11.9577 58.7523 11.5189 58.8708 11.0439C58.9872 10.5694 59.0462 10.1174 59.0462 9.69083C59.0462 9.00307 58.9349 8.46532 58.7133 8.07909C58.4918 7.69389 58.0897 7.50103 57.5082 7.50103Z" fill="#889099"/>
<path fill-rule="evenodd" clip-rule="evenodd" d="M65.4677 16.0535H62.3918L64.9877 5.1867H68.0841L65.4677 16.0535ZM66.961 3.86374C66.5323 3.86374 66.1436 3.73619 65.799 3.48211C65.4523 3.22905 65.2785 2.83925 65.2785 2.31425C65.2785 2.02548 65.338 1.75405 65.4554 1.49895C65.5728 1.24384 65.7287 1.02344 65.9231 0.837211C66.1164 0.652007 66.3431 0.504048 66.598 0.392313C66.8533 0.282619 67.1267 0.228027 67.4174 0.228027C67.8472 0.228027 68.2354 0.355068 68.581 0.60966C68.9272 0.865272 69.1015 1.25507 69.1015 1.77701C69.1015 2.0668 69.0395 2.33925 68.9231 2.59435C68.8067 2.84946 68.6513 3.06884 68.4574 3.25609C68.2626 3.44129 68.039 3.58874 67.7836 3.69946C67.5262 3.81068 67.2533 3.86374 66.961 3.86374Z" fill="#889099"/>
<path fill-rule="evenodd" clip-rule="evenodd" d="M70.2974 5.68213C70.5308 5.61427 70.7913 5.53264 71.0749 5.44387C71.3595 5.35509 71.6769 5.27244 72.0318 5.19795C72.3831 5.12142 72.779 5.05968 73.2149 5.0107C73.6508 4.96172 74.1467 4.93774 74.699 4.93774C76.3195 4.93774 77.4374 5.40713 78.0544 6.34387C78.6702 7.2806 78.7774 8.56223 78.3769 10.1862L76.9636 16.0536H73.8697L75.24 10.3097C75.3231 9.95101 75.3892 9.60407 75.4374 9.2653C75.4867 8.93009 75.4836 8.63417 75.4267 8.37805C75.3728 8.12499 75.2436 7.91836 75.0441 7.75764C74.841 7.59897 74.5344 7.5204 74.1185 7.5204C73.7179 7.5204 73.3102 7.56325 72.8938 7.64591L70.879 16.0536H67.7841L70.2974 5.68213Z" fill="#889099"/>
<path fill-rule="evenodd" clip-rule="evenodd" d="M33.1605 22.5301L32.5574 23.6199H31.9051C32.3646 22.7954 32.8128 22.0363 33.2497 21.3424C33.6867 20.6485 34.1185 19.9934 34.5451 19.3771H35.1297C35.1913 19.6832 35.2477 19.9929 35.299 20.3046C35.3502 20.6169 35.4005 20.9444 35.4497 21.2873C35.499 21.6301 35.5461 21.9939 35.5913 22.3776C35.6364 22.7613 35.6836 23.175 35.7328 23.6204H35.1297C35.1092 23.4368 35.0908 23.2521 35.0744 23.0664C35.0579 22.8806 35.0395 22.7021 35.019 22.5306H33.1605V22.5301ZM34.9636 22.0521C34.9308 21.722 34.8928 21.3929 34.8497 21.0664C34.8067 20.7398 34.7564 20.4031 34.699 20.0562C34.5554 20.2643 34.3769 20.5332 34.1636 20.8613C33.9502 21.1903 33.7082 21.5868 33.4374 22.0521H34.9636Z" fill="#889099"/>
<path fill-rule="evenodd" clip-rule="evenodd" d="M37.9138 23.7112C37.6472 23.7112 37.4123 23.6724 37.2092 23.5949C37.0061 23.5173 36.8369 23.4071 36.7015 23.2643C36.5661 23.1219 36.4646 22.949 36.3969 22.7469C36.3292 22.5449 36.2954 22.3173 36.2954 22.0643C36.2954 21.6969 36.3538 21.3459 36.4708 21.0112C36.5877 20.677 36.7538 20.3811 36.9692 20.124C37.1846 19.8668 37.4441 19.6617 37.7477 19.5082C38.0513 19.3551 38.3892 19.2786 38.7631 19.2786C39.0831 19.2786 39.3385 19.3112 39.5292 19.3765C39.72 19.4418 39.8564 19.5031 39.9385 19.5602L39.6923 20.05C39.5974 19.9888 39.4697 19.9306 39.3077 19.8755C39.1456 19.8209 38.9538 19.7929 38.7323 19.7929C38.4492 19.7929 38.1949 19.8592 37.9692 19.9923C37.7436 20.125 37.5528 20.2964 37.3969 20.5066C37.241 20.7168 37.122 20.9536 37.04 21.2168C36.9579 21.4801 36.9169 21.7403 36.9169 21.9974C36.9169 22.7934 37.2636 23.1913 37.9569 23.1913C38.1046 23.1913 38.2369 23.1806 38.3538 23.1602C38.4708 23.1403 38.5744 23.1163 38.6646 23.0898C38.7549 23.0633 38.8349 23.0342 38.9046 23.001C38.9744 22.9684 39.0359 22.9398 39.0892 22.9153L39.1631 23.4296C39.1138 23.4582 39.0492 23.4888 38.9692 23.5214C38.8892 23.5541 38.7959 23.5847 38.6892 23.6138C38.5826 23.6423 38.4636 23.6658 38.3323 23.6842C38.201 23.7025 38.0615 23.7112 37.9138 23.7112Z" fill="#889099"/>
<path fill-rule="evenodd" clip-rule="evenodd" d="M41.3713 23.7112C41.1046 23.7112 40.8697 23.6724 40.6667 23.5949C40.4636 23.5173 40.2944 23.4071 40.159 23.2643C40.0236 23.1219 39.9221 22.949 39.8544 22.7469C39.7867 22.5449 39.7528 22.3173 39.7528 22.0643C39.7528 21.6969 39.8113 21.3459 39.9282 21.0112C40.0451 20.677 40.2113 20.3811 40.4267 20.124C40.6421 19.8668 40.9015 19.6617 41.2051 19.5082C41.5087 19.3551 41.8467 19.2786 42.2205 19.2786C42.5405 19.2786 42.7959 19.3112 42.9867 19.3765C43.1774 19.4418 43.3138 19.5031 43.3959 19.5602L43.1497 20.05C43.0549 19.9888 42.9272 19.9306 42.7651 19.8755C42.6031 19.8209 42.4113 19.7929 42.1897 19.7929C41.9067 19.7929 41.6523 19.8592 41.4267 19.9923C41.201 20.125 41.0103 20.2964 40.8544 20.5066C40.6985 20.7168 40.5795 20.9536 40.4974 21.2168C40.4154 21.4801 40.3744 21.7403 40.3744 21.9974C40.3744 22.7934 40.721 23.1913 41.4144 23.1913C41.5621 23.1913 41.6944 23.1806 41.8113 23.1602C41.9282 23.1403 42.0318 23.1163 42.1221 23.0898C42.2123 23.0633 42.2923 23.0342 42.3621 23.001C42.4318 22.9684 42.4933 22.9398 42.5467 22.9153L42.6205 23.4296C42.5713 23.4582 42.5067 23.4888 42.4267 23.5214C42.3467 23.5541 42.2533 23.5847 42.1467 23.6138C42.04 23.6423 41.921 23.6658 41.7897 23.6842C41.6585 23.7025 41.519 23.7112 41.3713 23.7112Z" fill="#889099"/>
<path fill-rule="evenodd" clip-rule="evenodd" d="M43.0236 23.6193L44.0451 19.3765H46.5621L46.4451 19.8724H44.519L44.2113 21.152H45.9221L45.8051 21.6356H44.1005L43.7374 23.1234H45.8051L45.6882 23.6193H43.0236H43.0236Z" fill="#889099"/>
<path fill-rule="evenodd" clip-rule="evenodd" d="M48.3436 19.3336C48.84 19.3336 49.2144 19.4275 49.4667 19.6153C49.719 19.803 49.8451 20.0765 49.8451 20.4357C49.8451 20.7132 49.7928 20.9535 49.6882 21.155C49.5836 21.3571 49.4349 21.5234 49.2421 21.6545C49.0492 21.7851 48.8174 21.8816 48.5467 21.9448C48.2759 22.0081 47.9744 22.0403 47.6421 22.0403H47.2174L46.8359 23.6198H46.239L47.2482 19.4321C47.4205 19.3913 47.6031 19.3647 47.7959 19.3525C47.9887 19.3397 48.1713 19.3336 48.3436 19.3336ZM48.2698 19.8357C47.9785 19.8357 47.8021 19.8438 47.7405 19.8601L47.3344 21.5438H47.7221C47.8944 21.5438 48.0708 21.529 48.2513 21.4979C48.4318 21.4673 48.5939 21.4132 48.7374 21.3362C48.881 21.2586 48.999 21.1515 49.0913 21.0142C49.1836 20.8775 49.2298 20.7015 49.2298 20.4851C49.2298 20.2525 49.1436 20.0862 48.9713 19.9857C48.799 19.8857 48.5651 19.8357 48.2698 19.8357Z" fill="#889099"/>
<path fill-rule="evenodd" clip-rule="evenodd" d="M53.4856 19.3765L53.3687 19.8724H52.0826L51.178 23.6193H50.581L51.4856 19.8724H50.1995L50.3164 19.3765H53.4856Z" fill="#889099"/>
<path fill-rule="evenodd" clip-rule="evenodd" d="M52.9318 23.6193L53.9533 19.3765H56.4703L56.3533 19.8724H54.4272L54.1195 21.152H55.8303L55.7133 21.6356H54.0087L53.6456 23.1234H55.7133L55.5964 23.6193H52.9318H52.9318Z" fill="#889099"/>
<path fill-rule="evenodd" clip-rule="evenodd" d="M58.2426 19.3336C58.8744 19.3336 59.3461 19.4816 59.6579 19.7775C59.9697 20.0734 60.1256 20.4724 60.1256 20.9744C60.1256 21.3255 60.0702 21.6632 59.9595 21.9872C59.8487 22.3122 59.6764 22.5984 59.4426 22.8479C59.2087 23.0964 58.9102 23.2948 58.5472 23.4418C58.1841 23.5887 57.7502 23.6622 57.2456 23.6622C57.0733 23.6622 56.8867 23.654 56.6856 23.6377C56.4846 23.6214 56.3082 23.5928 56.1564 23.552L57.1472 19.4316C57.3195 19.3908 57.502 19.3642 57.6949 19.352C57.8877 19.3397 58.0702 19.3336 58.2426 19.3336ZM58.1933 19.8357C57.8856 19.8357 57.701 19.8438 57.6395 19.8601L56.8518 23.1295C56.8846 23.1377 56.94 23.1448 57.0179 23.151C57.0959 23.1571 57.2231 23.1601 57.3995 23.1601C57.7236 23.1601 58.0159 23.1066 58.2764 22.9984C58.5369 22.8903 58.7574 22.7392 58.9379 22.5448C59.1185 22.351 59.2579 22.1209 59.3564 21.8535C59.4549 21.5862 59.5041 21.2933 59.5041 20.9749C59.5041 20.6158 59.3995 20.3362 59.1902 20.1357C58.981 19.9362 58.6487 19.8357 58.1933 19.8357Z" fill="#889099"/>
<path fill-rule="evenodd" clip-rule="evenodd" d="M64.7226 23.6193H64.1256L64.5995 21.6479H62.6241L62.1503 23.6193H61.5533L62.5749 19.3765H63.1718L62.741 21.152H64.7169L65.1477 19.3765H65.7446L64.7226 23.6193Z" fill="#889099"/>
<path fill-rule="evenodd" clip-rule="evenodd" d="M65.6641 23.6193L66.6856 19.3765H69.2026L69.0851 19.8724H67.159L66.8513 21.152H68.562L68.4446 21.6356H66.74L66.3774 23.1234H68.4446L68.3272 23.6193H65.6641H65.6641Z" fill="#889099"/>
<path fill-rule="evenodd" clip-rule="evenodd" d="M70.9841 19.3336C71.4395 19.3336 71.8005 19.4255 72.0672 19.6091C72.3338 19.7928 72.4667 20.0622 72.4667 20.4168C72.4667 20.776 72.3615 21.0775 72.1503 21.3204C71.939 21.5632 71.6426 21.7377 71.261 21.8433C71.3103 21.9295 71.3677 22.0387 71.4333 22.1714C71.499 22.304 71.5667 22.451 71.6364 22.6122C71.7056 22.7729 71.7738 22.9408 71.8395 23.1137C71.9051 23.2877 71.9621 23.4556 72.0118 23.6188H71.4026C71.3456 23.4637 71.2856 23.3066 71.2241 23.1474C71.1631 22.9882 71.1 22.8351 71.0369 22.6882C70.9728 22.5413 70.9097 22.4035 70.8456 22.2749C70.7826 22.1464 70.7236 22.0326 70.6703 21.9351C70.6169 21.9392 70.5636 21.9423 70.5103 21.9443C70.4569 21.9464 70.4041 21.9474 70.3503 21.9474H69.8764L69.4764 23.6188H68.8795L69.8892 19.4311C70.0615 19.3903 70.2436 19.3637 70.4369 19.3515C70.6292 19.3397 70.8118 19.3336 70.9841 19.3336ZM70.9103 19.8357C70.619 19.8357 70.4426 19.8438 70.3805 19.8601L69.9928 21.4647H70.3564C70.5246 21.4647 70.6969 21.4525 70.8733 21.428C71.0497 21.4035 71.2108 21.3556 71.3559 21.2841C71.5015 21.2127 71.6205 21.1127 71.7128 20.9841C71.8051 20.8556 71.8518 20.6851 71.8518 20.4729C71.8518 20.2443 71.7646 20.0811 71.5903 19.9831C71.4159 19.8846 71.1887 19.8357 70.9103 19.8357Z" fill="#889099"/>
<path fill-rule="evenodd" clip-rule="evenodd" d="M72.5123 23.6193L73.5338 19.3765H76.0508L75.9333 19.8724H74.0072L73.6995 21.152H75.4103L75.2928 21.6356H73.5882L73.2256 23.1234H75.2928L75.1754 23.6193H72.5123H72.5123Z" fill="#889099"/>
<path fill-rule="evenodd" clip-rule="evenodd" d="M8.22769 16.3418C12.7576 16.3418 16.4297 12.6883 16.4297 8.18157C16.4297 3.67481 12.7576 0.0213623 8.22769 0.0213623C3.69782 0.0213623 0.0256348 3.67481 0.0256348 8.18157C0.0256348 12.6883 3.69782 16.3418 8.22769 16.3418ZM10.0395 4.95861C11.1759 5.3484 12.0072 5.93208 11.8441 7.0183C11.7256 7.81371 11.2826 8.1984 10.6938 8.3331C11.5015 8.75146 11.9128 9.39279 11.521 10.5055C11.0354 11.8872 9.88102 12.0035 8.34564 11.7147L7.97282 13.1999L7.07282 12.9765L7.44051 11.5112C7.20718 11.4535 6.96872 11.3918 6.72308 11.326L6.35385 12.7984L5.45487 12.5749L5.82718 11.0867C5.74797 11.0664 5.66818 11.0457 5.58781 11.0248C5.45534 10.9904 5.32128 10.9555 5.18564 10.9219L4.01436 10.6316L4.46154 9.60606C4.46154 9.60606 5.12513 9.78106 5.1159 9.7683C5.37077 9.83106 5.4841 9.66575 5.52872 9.55606L6.11743 7.20708L6.13051 7.21027L6.13059 7.21029C6.15916 7.21727 6.18657 7.22397 6.21282 7.23106C6.17641 7.21575 6.1441 7.20708 6.11897 7.20095L6.53897 5.52493C6.55026 5.33463 6.4841 5.09483 6.11949 5.00401C6.13333 4.99432 5.46564 4.84228 5.46564 4.84228L5.70513 3.88565L6.94667 4.19381L6.94564 4.1984C7.13231 4.24483 7.32461 4.28871 7.52051 4.3331L7.88974 2.86167L8.78923 3.08514L8.42769 4.52748C8.66974 4.58208 8.91282 4.63769 9.14923 4.69636L9.5082 3.2632L10.4082 3.48667L10.0395 4.95861ZM9.78718 9.8882C9.53164 10.9089 7.92568 10.4863 7.19138 10.2931L7.19129 10.2931C7.12545 10.2758 7.06662 10.2603 7.01641 10.2479L7.51077 8.27646C7.57209 8.29169 7.64701 8.30841 7.73187 8.32736L7.73191 8.32737C8.49165 8.49698 10.0487 8.84459 9.78718 9.8882ZM7.88599 7.41314C8.49907 7.57549 9.83312 7.92876 10.0656 7.00248C10.3029 6.05478 9.00678 5.76856 8.37219 5.62841C8.30028 5.61253 8.23686 5.59853 8.18513 5.58565L7.73692 7.37442C7.77961 7.38497 7.82977 7.39825 7.88599 7.41314Z" fill="#889099"/>
</svg>
