<svg width="66" height="52" viewBox="0 0 66 52" fill="none" xmlns="http://www.w3.org/2000/svg">
<path fill-rule="evenodd" clip-rule="evenodd" d="M62.8099 48.4682V43.6239H61.686V46.4338C61.2833 45.9156 60.6558 45.6228 60 45.647C58.4481 45.647 57.1901 46.9051 57.1901 48.457C57.1901 50.0088 58.4481 51.2669 60 51.2669C60.6558 51.2911 61.2833 50.9983 61.686 50.4801V51.132H62.8099V48.4682ZM27.967 45.7819H29.8889L29.9002 46.8497H27.9894V49.2999C27.9894 49.8394 28.203 50.1991 28.765 50.1991C29.1298 50.187 29.4856 50.0826 29.799 49.8956L30.1362 50.896C29.698 51.1694 29.1916 51.3136 28.6751 51.3118C27.2926 51.3118 26.8093 50.57 26.8093 49.3224V46.8497H25.719V45.7819H26.7868V44.1522H27.967V45.7819ZM12.4281 47.7826V51.1545L11.248 51.177V48.1872C11.248 47.2768 10.8658 46.771 10.0678 46.771C9.69348 46.7528 9.3304 46.9016 9.07649 47.1772C8.82258 47.4528 8.704 47.8269 8.75275 48.1984V51.177H7.57258V48.1872C7.57258 47.2768 7.17919 46.771 6.40365 46.771C6.02876 46.7508 5.66441 46.899 5.41003 47.1751C5.15564 47.4512 5.03779 47.8265 5.08861 48.1984V51.1545H3.90845V45.7819H5.07737V46.4451C5.42331 45.9189 6.02202 45.6152 6.65093 45.647C7.37323 45.616 8.05465 45.9826 8.42679 46.6024C8.83498 45.9635 9.55854 45.5974 10.3151 45.647C10.8891 45.6134 11.4499 45.8283 11.8544 46.2371C12.2589 46.6459 12.4679 47.2089 12.4281 47.7826ZM39.8585 45.647C39.278 45.63 38.7346 45.9319 38.4423 46.4338V45.7819H37.2846V51.1545H38.4536V48.1422C38.4536 47.2543 38.8357 46.7598 39.5775 46.7598C39.8276 46.7563 40.0758 46.8022 40.3081 46.8946L40.6678 45.7707C40.4008 45.6752 40.1196 45.6258 39.8361 45.6246L39.8585 45.647ZM22.5944 45.647C23.3637 45.6206 24.1245 45.8156 24.7861 46.209L24.2691 47.1532C23.7558 46.8579 23.1753 46.6992 22.5832 46.6923C21.9425 46.6923 21.5603 46.9621 21.5603 47.3218C21.5603 47.6814 21.965 47.7826 22.4708 47.85L23.0327 47.9287C24.2017 48.0973 24.9098 48.5132 24.9098 49.536C24.9098 50.5588 24.0106 51.2894 22.4595 51.2894C21.6294 51.3122 20.8138 51.0679 20.1329 50.5925L20.6949 49.6821C21.2106 50.0647 21.8401 50.2626 22.482 50.2441C23.28 50.2441 23.7071 50.008 23.7071 49.5922C23.7071 49.2887 23.4037 49.1201 22.763 49.0302L22.201 48.9515C20.9984 48.7829 20.3465 48.2434 20.3465 47.3667C20.3465 46.2989 21.2344 45.647 22.5944 45.647ZM56.0942 45.647C55.5137 45.63 54.9703 45.9319 54.678 46.4338V45.7819H53.5203V51.1545H54.6893V48.1422C54.6893 47.2543 55.0714 46.7598 55.8132 46.7598C56.0633 46.7563 56.3115 46.8022 56.5438 46.8946L56.9035 45.7707C56.6365 45.6752 56.3553 45.6258 56.0718 45.6246L56.0942 45.647ZM41.8454 50.4951C41.2999 49.9603 41.005 49.2204 41.0331 48.457V48.4345C41.005 47.6711 41.2999 46.9311 41.8454 46.3963C42.3909 45.8615 43.1365 45.5813 43.8992 45.6246C44.601 45.5889 45.2908 45.8174 45.8324 46.2652L45.2704 47.2094C44.8663 46.9012 44.3736 46.7317 43.8655 46.7261C42.9695 46.7985 42.2793 47.5468 42.2793 48.4457C42.2793 49.3446 42.9695 50.0929 43.8655 50.1654C44.3736 50.1597 44.8663 49.9902 45.2704 49.6821L45.8324 50.6262C45.2908 51.074 44.601 51.3026 43.8992 51.2669C43.1365 51.3101 42.3909 51.0299 41.8454 50.4951ZM51.9805 48.457V45.7819H50.8116V46.4338C50.4089 45.9156 49.7815 45.6228 49.1256 45.647C47.5738 45.647 46.3157 46.9051 46.3157 48.457C46.3157 50.0088 47.5738 51.2669 49.1256 51.2669C49.7815 51.2911 50.4089 50.9983 50.8116 50.4801V51.132H51.9805V48.457ZM49.313 46.9295C48.4302 46.8964 47.6827 47.575 47.6308 48.457C47.6009 48.9059 47.76 49.3468 48.0694 49.6733C48.3789 49.9999 48.8107 50.1823 49.2605 50.1766C50.144 50.172 50.8617 49.4621 50.876 48.5788C50.8903 47.6954 50.1958 46.9627 49.313 46.9295ZM33.525 45.647C31.9731 45.6688 30.7327 46.9444 30.7544 48.4963C30.7761 50.0482 32.0518 51.2886 33.6037 51.2669C34.4122 51.3084 35.2073 51.048 35.8347 50.5363L35.2727 49.6708C34.829 50.0267 34.2792 50.2245 33.7104 50.2328C32.907 50.3019 32.1945 49.719 32.1032 48.9178H36.0932V48.4682C36.0932 46.7822 35.048 45.6583 33.5418 45.6583L33.525 45.647ZM34.4751 47.0625C34.22 46.818 33.8782 46.6848 33.525 46.6923H33.5025C32.7514 46.6667 32.1174 47.2458 32.0751 47.9961H34.885C34.8776 47.6429 34.7302 47.307 34.4751 47.0625ZM64.7738 50.3733C64.8422 50.3742 64.9099 50.3875 64.9736 50.4127C65.0381 50.439 65.0972 50.4771 65.1478 50.5251C65.1972 50.5735 65.2372 50.6307 65.2658 50.6937C65.3233 50.8263 65.3233 50.9769 65.2658 51.1095C65.2372 51.1725 65.1972 51.2297 65.1478 51.2781C65.0972 51.3261 65.0381 51.3642 64.9736 51.3905C64.9063 51.4202 64.8336 51.4355 64.76 51.4355C64.5426 51.4338 64.3456 51.3069 64.2542 51.1095C64.1974 50.9767 64.1974 50.8264 64.2542 50.6937C64.2829 50.6307 64.3229 50.5735 64.3722 50.5251C64.4228 50.4771 64.4819 50.439 64.5465 50.4127C64.6197 50.3835 64.6982 50.3701 64.7769 50.3733H64.7738ZM64.7649 51.3231C64.8193 51.3227 64.8731 51.3113 64.923 51.2894C64.9713 51.2678 65.0152 51.2373 65.0522 51.1994C65.198 51.0404 65.198 50.7964 65.0522 50.6375C65.0153 50.5995 64.9714 50.569 64.923 50.5475C64.8716 50.5251 64.8161 50.5136 64.76 50.5138C64.704 50.5141 64.6486 50.5256 64.597 50.5475C64.5466 50.5682 64.5007 50.5988 64.4622 50.6375C64.3164 50.7964 64.3164 51.0404 64.4622 51.1994C64.5008 51.238 64.5466 51.2685 64.597 51.2894C64.6537 51.3138 64.7152 51.3253 64.7769 51.3231H64.7649ZM64.9399 50.6993C64.8979 50.6677 64.8462 50.6518 64.7937 50.6543L64.5577 50.6599V51.1545H64.6645V50.969H64.7151L64.8668 51.1545H64.9961L64.8331 50.969C64.877 50.9658 64.9185 50.948 64.9511 50.9184C64.9778 50.8917 64.9921 50.855 64.9904 50.8173C64.9936 50.7721 64.9748 50.7282 64.9399 50.6993ZM64.6701 50.7499V50.8847H64.7937C64.8157 50.8913 64.8392 50.8913 64.8612 50.8847C64.8692 50.8688 64.8692 50.8501 64.8612 50.8341C64.8692 50.8182 64.8692 50.7995 64.8612 50.7836C64.8392 50.777 64.8157 50.777 64.7937 50.7836L64.6701 50.7499ZM60.1705 46.9408C59.2877 46.9076 58.5403 47.5863 58.4883 48.4682C58.4585 48.9171 58.6175 49.358 58.9269 49.6846C59.2364 50.0111 59.6682 50.1936 60.118 50.1879C61.0015 50.1833 61.7192 49.4734 61.7335 48.59C61.7478 47.7067 61.0534 46.9739 60.1705 46.9408ZM19.0202 48.4682V45.7819H17.8513V46.4338C17.4485 45.9156 16.8211 45.6228 16.1653 45.647C14.6134 45.647 13.3554 46.9051 13.3554 48.457C13.3554 50.0088 14.6134 51.2669 16.1653 51.2669C16.8211 51.2911 17.4485 50.9983 17.8513 50.4801V51.132H19.0202V48.4682ZM16.3527 46.9408C15.4698 46.9076 14.7224 47.5863 14.6704 48.4682H14.6592C14.6292 48.9191 14.7897 49.3619 15.1017 49.6888C15.4136 50.0157 15.8484 50.1967 16.3002 50.1879C17.1836 50.1833 17.9014 49.4734 17.9157 48.59C17.9299 47.7067 17.2355 46.9739 16.3527 46.9408Z" fill="#889099"/>
<path opacity="0.4" d="M25.5223 20.7511C25.5157 14.5421 28.3653 8.67498 33.2496 4.84138C24.9546 -1.6776 13.0427 -0.728052 5.88515 7.0227C-1.27235 14.7735 -1.27235 26.7232 5.88515 34.4739C13.0427 42.2247 24.9546 43.1742 33.2496 36.6553C28.3669 32.8229 25.5174 26.9582 25.5223 20.7511Z" fill="#889099"/>
<path d="M65.9851 20.7511C65.985 28.4972 61.562 35.5631 54.5947 38.9481C47.6274 42.3331 39.339 41.4427 33.2496 36.6553C38.1302 32.8196 40.9799 26.9558 40.9799 20.7483C40.9799 14.5409 38.1302 8.677 33.2496 4.84137C39.339 0.0538955 47.6274 -0.836423 54.5947 2.54854C61.562 5.9335 65.985 12.9995 65.9851 20.7455V20.7511Z" fill="#889099"/>
<path opacity="0.65" d="M33.4297 37.1791C28.5644 33.4309 25.4297 27.5464 25.4297 20.9298C25.4297 14.3132 28.5644 8.42867 33.4297 4.68042C38.2951 8.42867 41.4297 14.3132 41.4297 20.9298C41.4297 27.5464 38.2951 33.4309 33.4297 37.1791Z" fill="#889099"/>
<path fill-rule="evenodd" clip-rule="evenodd" d="M64.0519 32.6315V33.2834H63.9339V32.6315H63.6473V32.4966H64.316V32.6315H64.0519ZM65.3501 32.4966V33.2834L65.2321 33.289V32.6933L65.0129 33.2047H64.8612L64.642 32.6933V33.2834H64.4959V32.4966H64.6757L64.9117 33.0586L65.1478 32.4966H65.3501Z" fill="#889099"/>
</svg>
