<svg width="74" height="18" viewBox="0 0 74 18" fill="none" xmlns="http://www.w3.org/2000/svg">
<path fill-rule="evenodd" clip-rule="evenodd" d="M73.1174 1.40527H71.9883C71.2658 1.40527 70.7294 1.89022 70.3136 2.48199L69.1966 4.074C69.196 4.07466 69.196 4.07532 69.1953 4.07597L66.7759 7.52199L64.6779 4.53635C64.6684 4.52138 64.6633 4.50771 64.6524 4.49221L63.2393 2.48593C62.8225 1.89469 62.2808 1.41053 61.5584 1.41053H60.5117C59.7891 1.41053 59.321 1.89403 59.7393 2.48396L61.1607 4.49405C61.1638 4.49799 61.1677 4.50193 61.1709 4.5064L65.2169 10.2186V16.6854C65.2169 17.4095 65.8084 18.0006 66.5311 18L67.0207 17.9986C67.7433 17.9981 68.3348 17.4043 68.3348 16.6802V10.2121L72.6449 4.12853C72.6583 4.11105 72.6756 4.09411 72.6883 4.07597L73.8151 2.48002C74.2331 1.88891 73.8399 1.40527 73.1174 1.40527Z" fill="#889099"/>
<path fill-rule="evenodd" clip-rule="evenodd" d="M25.9537 9.18088L30.0135 5.27265C30.0323 5.25583 32.8835 2.51129 32.8835 2.51129C33.3966 2.01662 32.8445 1.40527 32.1414 1.40527H30.5976C29.8948 1.40527 29.5397 1.811 29.0276 2.30764L26.0223 5.22088C26.0197 5.22338 26.0182 5.226 26.0153 5.22929L24.0815 7.10392V4.97834H24.0732C24.0751 4.94983 24.0815 4.92197 24.0815 4.89346V2.72256C24.0815 1.99849 23.5066 1.40527 22.8037 1.40527H22.2297C21.527 1.40527 20.9519 1.99849 20.9519 2.72256V4.89346C20.9519 4.92197 20.9583 4.94983 20.9601 4.97834H20.9519V16.6828C20.9519 17.4069 21.527 18 22.2297 18H22.8037C23.5066 18 24.0815 17.4069 24.0815 16.6828V11.4418L26.8366 14.2766H26.8398L29.5518 17.0699C30.0493 17.5812 30.392 18 31.095 18H32.6407C33.3435 18 33.643 17.1431 33.1455 16.6316L25.9537 9.18088Z" fill="#889099"/>
<path fill-rule="evenodd" clip-rule="evenodd" d="M56.5185 10.8052H53.4936C53.1303 10.8052 52.9456 10.531 53.0818 10.1953L54.7525 6.10038C54.8895 5.76469 55.1138 5.76469 55.2513 6.09973L56.9297 10.196C57.0672 10.531 56.8818 10.8052 56.5185 10.8052ZM62.5948 16.3574H62.6026L57.3287 3.2443H57.3262L57.0788 2.62849C56.8089 1.95565 55.9936 1.40527 55.2672 1.40527H54.743C54.0166 1.40527 53.202 1.95631 52.9341 2.6298L52.6898 3.2443H52.6809L47.427 16.288H47.4288L47.2307 16.7781C46.9589 17.4504 47.3323 18 48.0587 18H49.2345C49.9609 18 50.3024 17.4445 50.5548 16.7651L50.732 16.288H50.7391L51.801 13.4637H58.2232L58.3102 13.6905L58.3747 13.8254L59.3217 16.3574H59.3249L59.4771 16.7651C59.7303 17.4445 60.1741 18 60.9011 18H61.9407C62.6678 18 63.0392 17.4509 62.7661 16.7794L62.5948 16.3574Z" fill="#889099"/>
<path fill-rule="evenodd" clip-rule="evenodd" d="M46.2486 7.63025C46.127 7.93757 45.95 8.19364 45.7127 8.40412L45.7153 8.40162L45.7133 8.40412C45.2376 8.82364 44.5292 9.05251 43.5751 9.05251H41.852C41.483 9.05251 41.1813 8.75624 41.1813 8.39387V4.70019C41.1813 4.33849 41.483 4.04168 41.852 4.04168H43.5751C44.5292 4.04168 45.2376 4.27043 45.7127 4.69113C45.9505 4.90122 46.127 5.15532 46.2486 5.46316C46.3687 5.77047 46.4313 6.12903 46.4313 6.54184C46.4313 6.95873 46.3687 7.32044 46.2486 7.63025ZM49.3598 8.75821C49.6283 8.11126 49.7608 7.37037 49.7608 6.54184C49.7608 5.71989 49.6283 4.98346 49.3598 4.34046C49.0926 3.69745 48.6885 3.14773 48.1533 2.70692C47.0907 1.83254 45.5432 1.40527 43.5751 1.40527H39.3162C38.579 1.40527 37.9752 1.99849 37.9752 2.72256V16.6828C37.9752 17.4069 38.579 18 39.3162 18H39.8404C40.5777 18 41.1813 17.4069 41.1813 16.6828V11.6888H43.5751C45.5432 11.6888 47.0907 11.2649 48.1526 10.3924C48.6866 9.95409 49.0926 9.40384 49.3598 8.75821Z" fill="#889099"/>
<path fill-rule="evenodd" clip-rule="evenodd" d="M14.9997 13.6595C14.5599 14.2105 14.0566 14.613 13.4754 14.8801C12.8941 15.1472 12.2302 15.2827 11.4699 15.2827C10.7077 15.2827 10.0434 15.1472 9.45995 14.8801C8.8743 14.613 8.36887 14.2066 7.925 13.6549C7.40428 13.0119 7.03661 12.2068 6.81448 11.2571L6.60946 9.87451C6.60311 9.79147 6.5987 9.61646 6.59637 9.42845C6.59222 9.23137 6.59002 9.01235 6.59002 8.8334C6.59002 8.67981 6.59222 8.55328 6.59443 8.50086L6.75331 7.11814C6.96015 6.03696 7.35179 5.13131 7.925 4.41827L7.92254 4.42274H7.925C8.36887 3.86658 8.8743 3.46414 9.45995 3.19769C10.0434 2.93058 10.7077 2.79512 11.4699 2.79512C12.2302 2.79512 12.8941 2.93058 13.4754 3.19769C14.0566 3.46414 14.5599 3.86658 14.9997 4.41827C15.8795 5.521 16.3364 7.06953 16.3364 9.04349C16.3364 11.0121 15.8795 12.5569 14.9997 13.6595ZM17.4234 2.54102C15.938 0.904858 13.9172 0.0731792 11.4699 0.0777778C9.01142 0.0731792 6.98646 0.904858 5.49881 2.54102C4.40359 3.74019 3.71141 5.25849 3.42591 7.05205V7.05665L3.2932 8.46972V8.47878C3.28426 8.65839 3.27376 8.84181 3.27376 9.04349C3.27376 9.34095 3.28685 9.62947 3.30408 9.90946V9.91852L3.48474 11.3317V11.3362C3.79837 12.9944 4.46424 14.4121 5.49881 15.5453C6.98646 17.1729 9.01142 18.0046 11.4699 18C13.9172 18.0046 15.938 17.1729 17.4234 15.5368C18.8994 13.9129 19.6424 11.7167 19.6424 9.04349C19.6424 6.36556 18.902 4.16417 17.4234 2.54102Z" fill="#889099"/>
<path fill-rule="evenodd" clip-rule="evenodd" d="M11.4267 8.04305H0.654724L1.66817 6.05188H12.4402L11.4267 8.04305Z" fill="#889099"/>
<path fill-rule="evenodd" clip-rule="evenodd" d="M9.4085 12.026H0L1.06749 10.0345H10.476L9.4085 12.026Z" fill="#889099"/>
</svg>
