<svg width="40" height="40" viewBox="0 0 40 40" fill="none" xmlns="http://www.w3.org/2000/svg">
<path d="M34.0632 23.1186V23.3498L34.1646 23.5575L38.0926 31.5998L38.0932 31.6009C38.2243 31.8686 38.2082 32.1849 38.0505 32.4379C37.8929 32.6908 37.616 32.8446 37.3179 32.8448H25.8094H24.8094V33.8448V34.0265C24.8094 36.7733 22.5827 39 19.836 39C17.0892 39 14.8625 36.7733 14.8625 34.0265V33.8448V32.8448H13.8625H2.36337C2.06531 32.8446 1.78839 32.6908 1.63073 32.4379C1.47307 32.1849 1.45697 31.8686 1.58811 31.6009L1.58867 31.5998L5.51662 23.5575L5.61807 23.3498V23.1186V15.4444H5.61813L5.61801 15.4334C5.55408 9.63067 9.09919 4.39791 14.512 2.30551L14.5197 2.30253L14.5266 2.2997L14.5269 2.29961L14.5269 2.29958L14.5271 2.29952L14.5274 2.29941L14.5305 2.29815L14.5494 2.29065C14.5672 2.28367 14.5951 2.27282 14.6325 2.25865C14.7072 2.2303 14.8196 2.18873 14.9639 2.13833C15.2531 2.03737 15.6685 1.90177 16.1657 1.76606C17.1704 1.49184 18.4638 1.22992 19.7093 1.22992C20.9584 1.22992 22.3207 1.49306 23.3987 1.76992C23.9316 1.90677 24.3823 2.04361 24.6984 2.14575C24.8562 2.19675 24.9798 2.23891 25.0627 2.26784C25.1042 2.2823 25.1354 2.29344 25.1555 2.3007L25.1725 2.30685C30.5405 4.45399 34.0618 9.65267 34.0632 15.4351C34.0632 15.4352 34.0632 15.4353 34.0632 15.4354V23.1186Z" stroke="#46B843" stroke-width="2"/>
</svg>
